# xmcd CD database file
#
# Track frame offsets:
#	150
#	41745
#	89984
#	118672
#	148043
#	176521
#	208178
#
# Disc length: 3513 seconds
#
# Revision: 0
# Processed by: cddbd v1.4PL0 Copyright (c) Steve Scherf et al.
# Submitted via: CDex 1.50beta9
#
DISCID=6c0db707
DTITLE=Wynton Marsalis and Art Blakey - Jody
DYEAR=1999
DGENRE=Jazz
TTITLE0=Angel Eyes
TTITLE1=Bitter Dose
TTITLE2=Jody
TTITLE3=Wheel Within A Wheel
TTITLE4=Gypsey
TTITLE5=Round 'bout Midnight
TTITLE6=Time Will Tell
EXTD=YEAR: 1999
EXTT0=
EXTT1=
EXTT2=
EXTT3=
EXTT4=
EXTT5=
EXTT6=
PLAYORDER=
